# File created by Blade
# Date/Time:  Fri Jan 16 19:32:17 2015
# Frame Rate: 120.000 fps
#------------------------------------------------------
:FULLY-SPECIFIED
:DEGREES
497
root 19.661185 35.450485 -19.845318 13.294939 13.097863 0.098801
Spine -28.869390 -10.598276 -1.541852
Head 16.776777 -4.526894 7.117050
LeftShoulder -7.736120 0.283635 -9.228382
LeftArm -103.315891 57.813125 -205.239820
LeftForeArm 47.596468 0.000000 137.679902
LeftHand 8.128258 0.000000 -20.943563
LeftHandThumb1 -26.253704 0.000000 33.147579
RightShoulder -20.604145 29.372421 -41.758109
RightArm -205.181833 51.373021 -250.334396
RightForeArm 20.602564 -0.000000 151.678326
RightHand 4.455978 0.000000 -8.170221
RightHandThumb1 -24.326973 -0.000000 -32.862282
LeftUpLeg -3.858010 -0.428789 1.687350
LeftLeg -7.566037 -0.000000 0.000000
LeftFoot -19.457750 25.991116 -13.427980
LeftToeBase 25.877197 -0.000000 -0.000000
RightUpLeg -1.129593 -17.810846 0.117370
RightLeg -4.815962 -0.000000 0.000000
RightFoot -23.744627 -24.896313 21.783198
RightToeBase 23.586990 -0.000000 -0.000000
498
root 19.662762 35.451660 -19.850869 13.308753 13.084501 0.097235
Spine -28.868126 -10.586326 -1.532300
Head 16.833596 -4.528415 7.128589
LeftShoulder -7.726700 0.218746 -9.238934
LeftArm -103.442052 57.867912 -205.384857
LeftForeArm 47.578127 0.000000 137.684900
LeftHand 8.054498 0.000000 -20.813491
LeftHandThumb1 -26.253704 0.000000 33.147579
RightShoulder -20.593391 29.306723 -41.693945
RightArm -205.329821 51.400744 -250.382726
RightForeArm 20.538233 0.000000 151.760314
RightHand 4.477340 -0.000000 -8.132593
RightHandThumb1 -24.326973 -0.000000 -32.862282
LeftUpLeg -3.891399 -0.413108 1.672136
LeftLeg -7.553663 -0.000000 0.000000
LeftFoot -19.429797 26.074297 -13.359452
LeftToeBase 25.870842 -0.000000 -0.000000
RightUpLeg -1.165541 -17.796540 0.119918
RightLeg -4.798456 -0.000000 0.000000
RightFoot -23.725644 -24.882297 21.804650
RightToeBase 23.513999 -0.000000 -0.000000
499
root 19.665856 35.451966 -19.853043 13.308218 13.067281 0.092687
Spine -28.858980 -10.568339 -1.511251
Head 16.903383 -4.528458 7.108695
LeftShoulder -7.719616 0.169980 -9.252275
LeftArm -103.607500 57.932196 -205.567265
LeftForeArm 47.554866 -0.000000 137.693076
LeftHand 7.988513 0.000000 -20.676027
LeftHandThumb1 -26.253704 0.000000 33.147579
RightShoulder -20.555711 29.177824 -41.611513
RightArm -205.391402 51.401389 -250.387409
RightForeArm 20.398672 -0.000000 151.834111
RightHand 4.426521 -0.000000 -8.255873
RightHandThumb1 -24.326973 -0.000000 -32.862282
LeftUpLeg -3.895526 -0.403810 1.675234
LeftLeg -7.534432 -0.000000 0.000000
LeftFoot -19.463643 26.006204 -13.409038
LeftToeBase 25.906711 -0.000000 -0.000000
RightUpLeg -1.173575 -17.779722 0.115696
RightLeg -4.791507 -0.000000 0.000000
RightFoot -23.722544 -24.880999 21.803519
RightToeBase 23.527969 -0.000000 -0.000000
500
root 19.670470 35.452386 -19.855108 13.310499 13.056148 0.101895
Spine -28.852004 -10.554217 -1.506355
Head 16.979785 -4.543933 7.091450
LeftShoulder -7.676632 0.095413 -9.225339
LeftArm -103.713186 57.980578 -205.660131
LeftForeArm 47.757583 0.000000 137.712551
LeftHand 7.983930 -0.000000 -20.564553
LeftHandThumb1 -26.253704 0.000000 33.147579
RightShoulder -20.527778 29.113557 -41.562572
RightArm -205.578924 51.456777 -250.470845
RightForeArm 20.232431 -0.000000 151.919384
RightHand 4.313850 -0.000000 -8.558623
RightHandThumb1 -24.326973 -0.000000 -32.862282
LeftUpLeg -3.897205 -0.413559 1.648961
LeftLeg -7.540898 -0.000000 0.000000
LeftFoot -19.440332 26.100184 -13.359579
LeftToeBase 25.889649 -0.000000 -0.000000
RightUpLeg -1.179950 -17.789769 0.097217
RightLeg -4.786344 -0.000000 0.000000
RightFoot -23.704033 -24.880297 21.783899
RightToeBase 23.508350 -0.000000 -0.000000
